<?xml version="1.0" encoding="UTF-8" standalone="no"?>
<svg
   xmlns:dc="http://purl.org/dc/elements/1.1/"
   xmlns:cc="http://creativecommons.org/ns#"
   xmlns:rdf="http://www.w3.org/1999/02/22-rdf-syntax-ns#"
   xmlns:svg="http://www.w3.org/2000/svg"
   xmlns="http://www.w3.org/2000/svg"
   version="1.1"
   id="svg4469"
   viewBox="0 0 45.888681 57.000741"
   height="16.086876mm"
   width="12.950806mm">
  <defs
     id="defs4471" />
  <metadata
     id="metadata4474">
    <rdf:RDF>
      <cc:Work
         rdf:about="">
        <dc:format>image/svg+xml</dc:format>
        <dc:type
           rdf:resource="http://purl.org/dc/dcmitype/StillImage" />
        <dc:title></dc:title>
      </cc:Work>
    </rdf:RDF>
  </metadata>
  <g
     transform="translate(417.94434,-503.86183)"
     id="layer1">
    <path
       d="m -415.94434,522.90749 c -1.10452,1.1e-4 -1.99989,0.89548 -2,2 l 0,33.95508 c 1.1e-4,1.10452 0.89548,1.99989 2,2 l 41.88868,0 c 1.10452,-1.1e-4 1.99989,-0.89548 2,-2 l 0,-23.18945 -11.99024,4.73437 0,-4.73437 -11.99023,4.73437 0,-4.86914 -11.99024,4.73438 0,-15.36524 c -1.1e-4,-1.10452 -0.89547,-1.99989 -2,-2 l -5.91797,0 z m 4.79883,25.34571 2.72852,0 c 0.90654,0 1.63476,0.73017 1.63476,1.63671 l 0,2.72657 c 0,0.90654 -0.72822,1.63672 -1.63476,1.63672 l -2.72852,0 c -0.90654,0 -1.63672,-0.73018 -1.63672,-1.63672 l 0,-2.72657 c 0,-0.90654 0.73018,-1.63671 1.63672,-1.63671 z m 10,0 2.72852,0 c 0.90654,0 1.63476,0.73017 1.63476,1.63671 l 0,2.72657 c 0,0.90654 -0.72822,1.63672 -1.63476,1.63672 l -2.72852,0 c -0.90654,0 -1.63672,-0.73018 -1.63672,-1.63672 l 0,-2.72657 c 0,-0.90654 0.73018,-1.63671 1.63672,-1.63671 z m 10,0 2.72852,0 c 0.90654,0 1.63476,0.73017 1.63476,1.63671 l 0,2.72657 c 0,0.90654 -0.72822,1.63672 -1.63476,1.63672 l -2.72852,0 c -0.90654,0 -1.63672,-0.73018 -1.63672,-1.63672 l 0,-2.72657 c 0,-0.90654 0.73018,-1.63671 1.63672,-1.63671 z m 10,0 2.72852,0 c 0.90654,0 1.63476,0.73017 1.63476,1.63671 l 0,2.72657 c 0,0.90654 -0.72822,1.63672 -1.63476,1.63672 l -2.72852,0 c -0.90654,0 -1.63672,-0.73018 -1.63672,-1.63672 l 0,-2.72657 c 0,-0.90654 0.73018,-1.63671 1.63672,-1.63671 z m -11.15052,-44.39137 c -2.34081,10e-4 -4.51668,1.20553 -5.76101,3.18821 -1.38578,-1.21052 -3.16263,-1.87895 -5.00267,-1.88196 -3.28881,0.004 -6.20427,2.11678 -7.23203,5.24089 -0.50955,-0.15245 -1.03841,-0.23068 -1.57028,-0.23226 -3.05724,6.3e-4 -5.53516,2.47944 -5.53469,5.53667 -4.7e-4,3.05726 2.47745,5.53607 5.53469,5.53669 1.74519,-0.002 3.38731,-0.82662 4.43094,-2.22539 1.2799,0.90101 2.80614,1.38618 4.37137,1.38962 1.36092,-0.003 2.69619,-0.37053 3.86714,-1.06405 0.71541,0.4576 1.54689,0.70077 2.39612,0.70076 1.73651,-0.003 3.3126,-1.01591 4.03588,-2.59463 0.1546,0.0113 0.30953,0.0172 0.46454,0.0179 3.7597,4.8e-4 6.80767,-3.04749 6.8072,-6.8072 -6.3e-4,-3.75893 -3.04827,-6.80568 -6.8072,-6.80522 z"
       style="color:#000000;font-style:normal;font-variant:normal;font-weight:normal;font-stretch:normal;font-size:medium;line-height:normal;font-family:sans-serif;text-indent:0;text-align:start;text-decoration:none;text-decoration-line:none;text-decoration-style:solid;text-decoration-color:#000000;letter-spacing:normal;word-spacing:normal;text-transform:none;direction:ltr;block-progression:tb;writing-mode:lr-tb;baseline-shift:baseline;text-anchor:start;white-space:normal;clip-rule:nonzero;display:inline;overflow:visible;visibility:visible;opacity:1;isolation:auto;mix-blend-mode:normal;color-interpolation:sRGB;color-interpolation-filters:linearRGB;solid-color:#000000;solid-opacity:1;fill:#000000;fill-opacity:1;fill-rule:evenodd;stroke:none;stroke-width:4;stroke-linecap:butt;stroke-linejoin:round;stroke-miterlimit:4;stroke-dasharray:none;stroke-dashoffset:0;stroke-opacity:1;color-rendering:auto;image-rendering:auto;shape-rendering:auto;text-rendering:auto;enable-background:accumulate"
       id="path4402" />
  </g>
</svg>
